ply
format ascii 1.0
comment Created by Open Asset Import Library - http://assimp.sf.net (v3.1.187496374)
element vertex 8
property float x
property float y
property float z
property float nx
property float ny
property float nz
element face 12
property list uint uint vertex_index
end_header
1.63299 -0 1.1547 0.816497 0 0.57735
0 1.63299 1.1547 0 0.816497 0.57735
-1.63299 -0 1.1547 -0.816497 0 0.57735
0 -1.63299 1.1547 0 -0.816497 0.57735
0 -1.63299 -1.1547 0 -0.816497 -0.57735
1.63299 0 -1.1547 0.816497 0 -0.57735
0 1.63299 -1.1547 0 0.816497 -0.57735
-1.63299 0 -1.1547 -0.816497 0 -0.57735
3 0 1 2
3 0 2 3
3 0 3 4
3 0 4 5
3 1 0 5
3 1 5 6
3 6 7 2
3 6 2 1
3 3 2 7
3 3 7 4
3 7 6 5
3 7 5 4
