ply
format ascii 1.0
comment Created by Open Asset Import Library - http://assimp.sf.net (v3.1.187496374)
element vertex 42
property float x
property float y
property float z
property float nx
property float ny
property float nz
element face 80
property list uint uint vertex_index
end_header
0.7236 -0.52572 -0.447215 -0.723608 0.525728 0.447215
0.425323 -0.309011 -0.850654 -0.425328 0.309017 0.85065
0.262869 -0.809012 -0.525738 -0.262868 0.809015 0.525733
0.850648 0 -0.525736 -0.85065 0 0.525732
0.951058 -0.309013 0 -0.951055 0.30902 3.8179e-06
0.587786 -0.809017 0 -0.587786 0.809016 -1.03982e-06
-0.162456 -0.499995 -0.850654 0.16246 0.500002 0.85065
-0.276385 -0.85064 -0.447215 0.276392 0.850649 0.447217
0 -1 0 5.57843e-09 1 0
0.276385 -0.85064 0.447215 -0.276392 0.850649 -0.447217
0.688189 -0.499997 0.525736 -0.688187 0.500005 -0.525732
-0.262869 -0.809012 0.525738 0.262868 0.809015 -0.525733
-0.587786 -0.809017 0 0.587786 0.809016 1.04428e-06
-0.688189 -0.499997 -0.525736 0.688187 0.500004 0.525732
-0.951058 -0.309013 0 0.951055 0.30902 -3.81567e-06
-0.7236 -0.52572 0.447215 0.723608 0.525728 -0.447215
-0.425323 -0.309011 0.850654 0.425328 0.309017 -0.85065
0.162456 -0.499995 0.850654 -0.16246 0.500002 -0.85065
0.52573 0 0.850652 -0.52573 2.23141e-09 -0.850652
0 0 1 -1.54759e-06 -2.83442e-09 -1
-0.425323 0.309011 0.850654 0.425328 -0.309017 -0.85065
-0.850648 0 0.525736 0.85065 0 -0.525732
-0.951058 0.309013 0 0.951055 -0.30902 -3.8112e-06
-0.7236 0.52572 0.447215 0.723608 -0.525728 -0.447215
0.162456 0.499995 0.850654 -0.16246 -0.500002 -0.85065
-0.262869 0.809012 0.525738 0.262868 -0.809015 -0.525733
0.276385 0.85064 0.447215 -0.276392 -0.85065 -0.447217
0.688189 0.499997 0.525736 -0.688187 -0.500005 -0.525732
-0.587786 0.809017 0 0.587786 -0.809016 1.04428e-06
0 1 0 0 -1 0
-0.688189 0.499997 -0.525736 0.688187 -0.500004 0.525732
-0.276385 0.85064 -0.447215 0.276392 -0.850649 0.447217
0.587786 0.809017 0 -0.587786 -0.809016 -1.05321e-06
0.262869 0.809012 -0.525738 -0.262868 -0.809015 0.525733
0.7236 0.52572 -0.447215 -0.723608 -0.525729 0.447215
0.951058 0.309013 0 -0.951055 -0.30902 3.8112e-06
-0.162456 0.499995 -0.850654 0.16246 -0.500002 0.85065
0.425323 0.309011 -0.850654 -0.425328 -0.309017 0.85065
-0.52573 0 -0.850652 0.52573 2.23141e-09 0.850652
0 0 -1 1.54192e-06 2.83442e-09 1
0.894425 0 0.447215 -0.894426 -5.66876e-09 -0.447215
-0.894425 0 -0.447215 0.894426 2.83438e-09 0.447215
3 0 1 2
3 1 0 3
3 3 0 4
3 0 2 5
3 4 0 5
3 6 2 1
3 2 6 7
3 2 7 8
3 8 5 2
3 5 8 9
3 5 10 4
3 10 5 9
3 9 8 11
3 12 11 8
3 8 7 12
3 7 6 13
3 7 13 12
3 14 12 13
3 12 14 15
3 11 12 15
3 11 15 16
3 16 17 11
3 9 11 17
3 10 9 17
3 17 18 10
3 18 17 19
3 17 16 19
3 20 16 21
3 16 20 19
3 15 21 16
3 15 14 21
3 22 21 14
3 21 22 23
3 21 23 20
3 24 20 25
3 20 24 19
3 23 25 20
3 24 18 19
3 25 26 24
3 18 24 27
3 26 27 24
3 23 28 25
3 29 25 28
3 25 29 26
3 22 28 23
3 30 31 28
3 28 22 30
3 28 31 29
3 32 29 33
3 29 32 26
3 31 33 29
3 26 32 27
3 33 34 32
3 35 27 32
3 32 34 35
3 31 36 33
3 37 33 36
3 33 37 34
3 30 36 31
3 36 30 38
3 38 39 36
3 36 39 37
3 3 37 1
3 37 3 34
3 37 39 1
3 34 3 35
3 4 35 3
3 35 4 40
3 27 35 40
3 40 4 10
3 40 10 18
3 27 40 18
3 1 39 6
3 6 39 38
3 38 13 6
3 13 38 41
3 13 41 14
3 41 38 30
3 41 30 22
3 14 41 22
